<svg xmlns="http://www.w3.org/2000/svg" viewBox="0 0 500 360"><defs><linearGradient id="b" x1="0" x2="1"><stop stop-color="#ff4d7d"/><stop offset="1" stop-color="#e52c61"/></linearGradient><linearGradient id="n" x1="0" x2="1"><stop stop-color="#f4b74d"/><stop offset="1" stop-color="#ffd477"/></linearGradient></defs><ellipse cx="250" cy="316" rx="145" ry="22" fill="#322d75" opacity=".12"/><path d="M125 185h250c-6 73-48 113-125 113S131 258 125 185z" fill="url(#b)"/><ellipse cx="250" cy="186" rx="125" ry="30" fill="#ff668e"/><path d="M165 164c20-70 43-88 54-4M207 160c10-85 22-111 29-6M252 160c4-83 13-108 18-2M300 165c10-68 26-85 33-9" fill="none" stroke="url(#n)" stroke-width="13" stroke-linecap="round"/><circle cx="210" cy="198" r="8" fill="#ffd477"/><circle cx="247" cy="207" r="8" fill="#9be37d"/><circle cx="286" cy="196" r="8" fill="#ffcc5c"/><path d="M180 295h140" stroke="#d92958" stroke-width="18" stroke-linecap="round"/></svg>